<svg width="439" height="99" viewBox="0 0 439 99" fill="none" xmlns="http://www.w3.org/2000/svg">
<path d="M34.2652 47.6V41.4L76.5652 21.2L78.9652 26.2L39.8652 44.5L78.9652 62.8L76.5652 67.8L34.2652 47.6ZM107.278 84.1C104.344 84.1 101.544 83.6667 98.8777 82.8C94.8777 81.5333 91.6444 78.8 89.1777 74.6C86.7777 70.4 85.5777 65.5 85.5777 59.9C85.5777 55.0333 86.5777 50 88.5777 44.8C86.4444 43.2667 84.6777 41.4667 83.2777 39.4C81.8777 37.3333 81.0444 34.9333 80.7777 32.2C80.7111 31.6667 80.6777 31.2 80.6777 30.8C80.6777 30.3333 80.6777 29.8667 80.6777 29.4C80.6777 24.8 81.7111 20.7 83.7777 17.1C85.9111 13.5 88.7444 10.4667 92.2777 8C95.8111 5.46666 99.7777 3.56666 104.178 2.3C108.578 0.966665 113.044 0.299999 117.578 0.299999C122.044 0.299999 126.378 0.966665 130.578 2.3C134.778 3.63333 138.511 5.7 141.778 8.49999C145.111 11.3 147.678 14.8667 149.478 19.2C151.344 23.4667 152.144 28.6 151.878 34.6C154.611 32.8 157.178 30.8667 159.578 28.8C161.978 26.7333 163.811 24.4667 165.078 22C165.411 21.3333 165.844 21 166.378 21C166.778 21 166.978 21.2333 166.978 21.7C166.978 21.7667 166.944 21.9667 166.878 22.3C166.811 22.5667 166.711 22.8 166.578 23C164.711 25.9333 162.544 28.7 160.078 31.3C157.611 33.9 154.744 36.2 151.478 38.2C151.411 39.6667 151.178 41.3333 150.778 43.2C150.444 45 149.944 46.9 149.278 48.9C148.011 52.9667 145.978 57.0667 143.178 61.2C140.444 65.3333 137.178 69.1333 133.378 72.6C129.578 76.0667 125.444 78.8333 120.978 80.9C116.511 83.0333 111.944 84.1 107.278 84.1ZM110.578 47C116.178 47 122.078 46.2 128.278 44.6C134.544 42.9333 140.411 40.6667 145.878 37.8C146.011 36.9333 146.078 36.1 146.078 35.3C146.078 34.4333 146.078 33.6 146.078 32.8C146.078 27.3333 145.278 22.6667 143.678 18.8C142.144 14.8667 140.044 11.6667 137.378 9.2C134.711 6.73333 131.711 4.93333 128.378 3.8C125.044 2.6 121.578 1.99999 117.978 1.99999C114.111 1.99999 110.278 2.63333 106.478 3.89999C102.678 5.16666 99.2444 6.99999 96.1777 9.4C93.1111 11.7333 90.6444 14.5667 88.7777 17.9C86.9777 21.2333 86.0777 24.9667 86.0777 29.1C86.0777 30.3667 86.1777 31.6667 86.3777 33C86.7777 36.0667 88.1111 38.6 90.3777 40.6C91.3111 38.6 92.5777 36.3667 94.1777 33.9C95.7777 31.3667 97.6111 28.8333 99.6777 26.3C101.811 23.7 104.078 21.3333 106.478 19.2C108.944 17.0667 111.478 15.3667 114.078 14.1C116.744 12.7667 119.411 12.1 122.078 12.1C123.211 12.1 124.344 12.2333 125.478 12.5C126.678 12.7667 127.811 13.2333 128.878 13.9C129.411 14.2333 129.678 14.5333 129.678 14.8C129.678 15 129.511 15.1667 129.178 15.3C128.911 15.4333 128.544 15.4333 128.078 15.3C127.211 15.0333 126.244 14.9 125.178 14.9C122.778 14.9 120.344 15.6333 117.878 17.1C115.411 18.5 113.011 20.3667 110.678 22.7C108.344 24.9667 106.178 27.4333 104.178 30.1C102.178 32.7 100.411 35.2667 98.8777 37.8C97.4111 40.2667 96.2777 42.3667 95.4777 44.1C99.5444 46.0333 104.578 47 110.578 47ZM108.078 81.7C111.811 81.7 115.444 80.7667 118.978 78.9C122.578 77.0333 125.944 74.5 129.078 71.3C132.278 68.1 135.111 64.5333 137.578 60.6C140.044 56.6667 142.011 52.6333 143.478 48.5C143.878 47.3667 144.244 46.2 144.578 45C144.911 43.7333 145.111 42.5333 145.178 41.4C139.778 44.2667 134.011 46.4667 127.878 48C121.744 49.5333 115.878 50.3 110.278 50.3C104.078 50.3 98.6777 49.4 94.0777 47.6C92.0111 52.8667 90.9777 58.0333 90.9777 63.1C90.9777 66.7667 91.6444 70.0667 92.9777 73C94.3111 75.9333 96.4111 78.1333 99.2777 79.6C102.211 81 105.144 81.7 108.078 81.7ZM164.225 78C162.358 78 160.691 77.3667 159.225 76.1C157.758 74.7667 157.025 72.7 157.025 69.9C157.025 67.7 157.425 65 158.225 61.8C159.091 58.5333 160.125 55.1667 161.325 51.7C162.591 48.1667 163.825 44.9667 165.025 42.1H159.725C159.258 42.1 159.025 41.7667 159.025 41.1C159.025 40.7667 159.091 40.4667 159.225 40.2C159.425 39.9333 159.691 39.8 160.025 39.8H166.025C167.158 37.2667 168.358 34.8 169.625 32.4C170.891 30 172.125 27.7333 173.325 25.6C174.858 22.9333 176.491 20.9333 178.225 19.6C179.958 18.2667 181.458 17.6 182.725 17.6C183.725 17.6 184.558 18 185.225 18.8C185.891 19.5333 186.225 20.6667 186.225 22.2C186.225 23.1333 186.025 24.4333 185.625 26.1C185.225 27.7 184.591 29.4 183.725 31.2C183.258 32.1333 182.591 33.4667 181.725 35.2C180.925 36.9333 180.125 38.4667 179.325 39.8H184.125C184.591 39.8 184.825 40.1333 184.825 40.8C184.825 41.0667 184.758 41.3667 184.625 41.7C184.491 41.9667 184.291 42.1 184.025 42.1H178.125C176.458 44.9667 174.558 47.7667 172.425 50.5C170.291 53.2333 167.758 55.9667 164.825 58.7C164.625 59.3 164.358 60.1667 164.025 61.3C163.758 62.4333 163.491 63.6 163.225 64.8C163.025 65.9333 162.825 66.9 162.625 67.7C162.491 68.5 162.425 68.9 162.425 68.9C162.225 69.7667 162.125 70.5667 162.125 71.3C162.125 72.7 162.458 73.7333 163.125 74.4C163.791 75 164.558 75.3 165.425 75.3C165.958 75.3 166.491 75.2333 167.025 75.1C167.558 74.9 168.158 74.5667 168.825 74.1C171.158 72.4333 173.191 70.1667 174.925 67.3C176.725 64.4333 178.291 61.6667 179.625 59C180.025 58.2 180.425 57.8 180.825 57.8C181.091 57.8 181.225 58 181.225 58.4C181.225 58.6 181.125 58.9667 180.925 59.5C179.458 62.5667 178.225 65.0333 177.225 66.9C176.225 68.7667 175.258 70.3333 174.325 71.6C173.391 72.8 172.291 74 171.025 75.2C170.091 76.1333 169.025 76.8333 167.825 77.3C166.625 77.7667 165.425 78 164.225 78ZM172.125 39.8H177.225C178.158 38.0667 179.025 36.3667 179.825 34.7C180.691 33.0333 181.458 31.3667 182.125 29.7C182.591 28.6333 182.991 27.4333 183.325 26.1C183.658 24.7667 183.825 23.7333 183.825 23C183.825 22 183.591 21.5 183.125 21.5C182.791 21.5 182.291 21.8 181.625 22.4C181.025 22.9333 180.258 23.8667 179.325 25.2C178.125 26.8667 176.925 29.0333 175.725 31.7C174.591 34.3 173.391 37 172.125 39.8ZM165.625 55.5C167.558 53.5 169.358 51.3667 171.025 49.1C172.758 46.8333 174.358 44.5 175.825 42.1H171.125C170.058 44.5667 169.058 46.9667 168.125 49.3C167.191 51.6333 166.358 53.7 165.625 55.5ZM206.042 78.3C205.308 78.3667 204.475 78.2 203.542 77.8C202.608 77.4 201.775 76.6667 201.042 75.6C200.375 74.5333 200.042 73.0333 200.042 71.1C200.042 69.5 200.342 67.5667 200.942 65.3C200.142 66.5667 199.108 68.1333 197.842 70C196.575 71.8 195.208 73.4 193.742 74.8C192.475 76 191.275 76.8667 190.142 77.4C189.008 77.9333 187.975 78.2 187.042 78.2C185.308 78.2 183.908 77.4333 182.842 75.9C181.775 74.3 181.242 72.2333 181.242 69.7C181.242 67.0333 181.908 64 183.242 60.6C184.575 57.2 186.742 53.6667 189.742 50C191.675 47.6667 194.008 45.8 196.742 44.4C199.542 42.9333 202.275 42.2 204.942 42.2C206.475 42.2 207.942 42.4667 209.342 43C210.742 43.4667 211.975 44.2667 213.042 45.4C213.508 45.8667 213.742 46.4 213.742 47C213.742 47.4 213.575 47.7333 213.242 48C212.908 48.2667 212.475 48.3333 211.942 48.2C211.208 45.8667 209.642 44.7 207.242 44.7C206.108 44.7 204.808 45.0667 203.342 45.8C201.075 47 198.708 48.9667 196.242 51.7C193.842 54.4333 191.742 57.2667 189.942 60.2C189.675 60.6 189.242 61.3667 188.642 62.5C188.108 63.6333 187.575 64.9 187.042 66.3C186.508 67.7 186.142 69.0667 185.942 70.4C185.875 70.8 185.842 71.1 185.842 71.3C185.842 71.4333 185.842 71.6667 185.842 72C185.842 74.2 186.675 75.3 188.342 75.3C190.342 75.3 192.608 73.8333 195.142 70.9C196.875 68.7667 198.442 66.5333 199.842 64.2C201.242 61.8667 202.675 59.3667 204.142 56.7C205.142 54.9 206.075 53.4 206.942 52.2C207.808 51 209.042 50.4 210.642 50.4C211.375 50.4 212.108 50.5 212.842 50.7C213.575 50.9 214.342 50.9333 215.142 50.8C214.608 51.3333 213.875 52.3333 212.942 53.8C212.075 55.2667 211.142 56.9333 210.142 58.8C209.142 60.6667 208.242 62.5667 207.442 64.5C206.642 66.4333 206.075 68.1 205.742 69.5C205.675 69.9 205.575 70.4667 205.442 71.2C205.375 71.9333 205.342 72.4667 205.342 72.8C205.342 74.6667 205.875 75.6 206.942 75.6C208.008 75.6 209.142 74.9667 210.342 73.7C211.608 72.4333 212.842 70.8667 214.042 69C215.242 67.1333 216.342 65.2667 217.342 63.4C218.342 61.4667 219.142 59.9 219.742 58.7C220.008 58.0333 220.408 57.7 220.942 57.7C221.275 57.7 221.442 57.9333 221.442 58.4C221.442 58.6 221.342 58.9667 221.142 59.5C220.342 61.1667 219.375 63.0667 218.242 65.2C217.108 67.2667 215.875 69.3 214.542 71.3C213.208 73.2333 211.808 74.8667 210.342 76.2C208.942 77.4667 207.508 78.1667 206.042 78.3ZM228.198 78.7C226.131 78.7 224.698 78.1667 223.898 77.1C223.098 76.0333 222.698 74.6667 222.698 73C222.698 71.2667 222.998 69.3 223.598 67.1C224.265 64.9 224.965 62.7333 225.698 60.6C225.231 61.2667 224.765 61.6 224.298 61.6C224.031 61.6 223.831 61.4667 223.698 61.2C223.565 60.9333 223.598 60.6333 223.798 60.3C224.131 59.7 224.465 59.1333 224.798 58.6C225.131 58 225.431 57.4 225.698 56.8C226.231 55.6667 226.665 54.3333 226.998 52.8C227.398 51.2 227.598 49.7333 227.598 48.4C227.598 47.3333 227.465 46.4333 227.198 45.7C226.931 44.9667 226.531 44.5333 225.998 44.4C225.998 44.4 226.331 44.3333 226.998 44.2C227.731 44.0667 228.498 43.9333 229.298 43.8C230.098 43.6667 230.631 43.6 230.898 43.6C231.298 43.5333 231.665 43.5 231.998 43.5C232.331 43.4333 232.631 43.4 232.898 43.4C233.565 43.4 233.998 43.6667 234.198 44.2C234.465 44.7333 234.565 45.9 234.498 47.7C234.431 49.3667 234.098 51.4 233.498 53.8C232.898 56.1333 232.265 58.1667 231.598 59.9C230.731 62.1667 229.931 64.4667 229.198 66.8C228.465 69.1333 228.098 71.0667 228.098 72.6C228.098 73.9333 228.465 74.8 229.198 75.2C229.731 75.4 230.198 75.5 230.598 75.5C232.131 75.5 233.631 74.7333 235.098 73.2C236.631 71.6667 238.098 69.6333 239.498 67.1C240.898 64.5 242.198 61.7333 243.398 58.8C242.931 57.8667 242.598 56.8333 242.398 55.7C242.198 54.5667 242.098 53.4667 242.098 52.4C242.098 51.1333 242.265 49.9333 242.598 48.8C243.398 46.1333 244.498 44.2333 245.898 43.1C247.365 41.9 248.598 41.3 249.598 41.3C250.865 41.3 251.498 41.8667 251.498 43C251.498 43.2667 251.398 43.6667 251.198 44.2C251.065 44.3333 250.998 44.5333 250.998 44.8C250.531 46.2 249.831 48.2333 248.898 50.9C248.031 53.5667 246.931 56.5 245.598 59.7C244.331 62.8333 242.798 65.8667 240.998 68.8C239.265 71.6667 237.331 74.0333 235.198 75.9C233.065 77.7667 230.731 78.7 228.198 78.7ZM267.165 37.4C266.165 37.4 265.332 37.0667 264.665 36.4C264.065 35.6667 263.765 34.8 263.765 33.8C263.765 32.5333 264.265 31.4333 265.265 30.5C266.265 29.5667 267.365 29.1 268.565 29.1C269.632 29.1 270.499 29.4333 271.165 30.1C271.832 30.7667 272.165 31.5667 272.165 32.5C272.165 33.7667 271.665 34.9 270.665 35.9C269.665 36.9 268.499 37.4 267.165 37.4ZM259.065 78C256.599 78 254.865 77.3 253.865 75.9C252.865 74.4333 252.365 72.7667 252.365 70.9C252.365 69.9 252.465 68.9 252.665 67.9C252.932 66.8333 253.232 65.8667 253.565 65L260.265 47.9C260.465 47.3667 260.565 46.9 260.565 46.5C260.565 45.8333 260.399 45.2667 260.065 44.8C259.732 44.2667 259.499 43.9 259.365 43.7L264.865 43.5C265.865 43.4333 266.565 43.5667 266.965 43.9C267.432 44.1667 267.665 44.5 267.665 44.9C267.665 45.3 267.432 46.0333 266.965 47.1L258.665 66.6C258.665 66.6 258.465 67.0333 258.065 67.9C257.732 68.7 257.532 69.2333 257.465 69.5C257.265 70.5 257.132 71.1333 257.065 71.4C256.999 71.6667 256.965 71.8333 256.965 71.9C256.965 71.9667 256.965 72.2333 256.965 72.7C256.965 73.5667 257.165 74.3 257.565 74.9C258.032 75.5 258.799 75.8 259.865 75.8C260.532 75.8 261.299 75.6 262.165 75.2C263.032 74.8 263.665 74.4 264.065 74C265.732 72.2667 267.365 70 268.965 67.2C270.632 64.3333 272.165 61.5 273.565 58.7C273.832 58.0333 274.165 57.7 274.565 57.7C274.899 57.7 275.065 57.9333 275.065 58.4C275.065 58.6667 274.965 59.0667 274.765 59.6C274.099 61 273.265 62.7333 272.265 64.8C271.265 66.8667 270.065 68.9333 268.665 71C267.332 73 265.865 74.6667 264.265 76C262.665 77.3333 260.932 78 259.065 78ZM285.643 78.4C283.177 78.4 280.943 77.6 278.943 76C277.01 74.4 276.043 71.9667 276.043 68.7C276.043 65.7 276.777 62.5 278.243 59.1C279.71 55.6333 281.577 52.6 283.843 50C285.777 47.7333 287.943 45.8667 290.343 44.4C292.743 42.9333 295.01 42.2 297.143 42.2C298.61 42.2 299.877 42.6 300.943 43.4C302.077 44.2667 302.643 45.5 302.643 47.1C302.643 48.7667 302.01 50.6 300.743 52.6C299.477 54.6 297.677 56.4667 295.343 58.2C294.343 58.9333 293.077 59.6333 291.543 60.3C290.01 60.9667 288.477 61.5333 286.943 62C285.41 62.4 284.143 62.6 283.143 62.6C282.81 63.4 282.477 64.4667 282.143 65.8C281.877 67.1333 281.743 68.5 281.743 69.9C281.743 71.5667 282.077 73.0667 282.743 74.4C283.41 75.7333 284.643 76.4 286.443 76.4C288.643 76.4 290.643 75.7667 292.443 74.5C294.243 73.2333 295.843 71.6667 297.243 69.8C298.643 67.8667 299.81 65.9333 300.743 64C301.743 62.0667 302.543 60.4333 303.143 59.1C303.543 58.1667 304.077 57.7 304.743 57.7C305.077 57.7 305.243 57.8667 305.243 58.2C305.243 58.4667 305.143 58.8 304.943 59.2C304.01 61.2 303.01 63.3333 301.943 65.6C300.877 67.8 299.61 69.9 298.143 71.9C296.677 73.8333 294.91 75.4 292.843 76.6C290.843 77.8 288.443 78.4 285.643 78.4ZM283.843 60.8C284.777 60.8 286.343 60.4667 288.543 59.8C290.743 59.0667 292.743 57.9333 294.543 56.4C296.277 54.8667 297.61 53.2 298.543 51.4C299.477 49.5333 299.943 47.9667 299.943 46.7C299.943 45.2333 299.41 44.5 298.343 44.5C297.543 44.5 296.443 45.0333 295.043 46.1C293.643 47.1667 291.91 48.9667 289.843 51.5C288.577 53.1 287.377 54.8333 286.243 56.7C285.11 58.5667 284.31 59.9333 283.843 60.8ZM310.725 80.7L338.925 4.2L344.325 6.3L316.325 82.8L310.725 80.7ZM339.022 62.8L378.122 44.5L339.022 26.2L341.422 21.2L383.722 41.4V47.6L341.422 67.8L339.022 62.8Z" fill="#EE0DD7"/>
</svg>
